#tb 0: 1/1
#media_type 0: video
#codec_id 0: fits
#dimensions 0: 72x36
#sar 0: 0/1
0,          0,          0,        1,     5760, 0x317ba180
0,          1,          1,        1,     5760, 0x439c9e40
0,          2,          2,        1,     5760, 0x6136ff8f
0,          3,          3,        1,     5760, 0x2c331324
0,          4,          4,        1,     5760, 0x2f0816c1
